<svg xmlns="http://www.w3.org/2000/svg" viewBox="0 0 64 64" role="img" aria-labelledby="title desc">
  <title id="title">Bloglist favicon</title>
  <desc id="desc">A stylized book icon for the Bloglist application.</desc>
  <rect width="64" height="64" rx="18" fill="#0D1B4B" />
  <path
    d="M18 16.5c0-2.5 2-4.5 4.5-4.5H46c1.1 0 2 .9 2 2v34.5c0 1.7-1.3 3-3 3H23
       c-2.8 0-5-2.2-5-5V16.5Z"
    fill="#FFFFFF"
  />
  <path
    d="M18 16.5c0-2.5 2-4.5 4.5-4.5H27v39.5h-4c-2.8 0-5-2.2-5-5V16.5Z"
    fill="#FFB8D2"
  />
  <path
    d="M27 16h17c1.1 0 2 .9 2 2v4H27v-6Zm0 12h19v4H27v-4Zm0 10h19v4H27v-4Z"
    fill="#0D1B4B"
    opacity=".12"
  />
  <circle cx="45" cy="45" r="5" fill="#E8455A" />
</svg>
